<svg width="17" height="18" viewBox="0 0 17 18" fill="none" xmlns="http://www.w3.org/2000/svg">
<path d="M6.27591 16.3411C6.64214 16.3411 6.93903 16.0442 6.93903 15.678C6.93903 15.3118 6.64214 15.0149 6.27591 15.0149C5.90968 15.0149 5.61279 15.3118 5.61279 15.678C5.61279 16.0442 5.90968 16.3411 6.27591 16.3411Z" stroke="currentColor" stroke-width="1.5" stroke-linecap="round" stroke-linejoin="round"/>
<path d="M13.5702 16.3411C13.9365 16.3411 14.2333 16.0442 14.2333 15.678C14.2333 15.3118 13.9365 15.0149 13.5702 15.0149C13.204 15.0149 12.9071 15.3118 12.9071 15.678C12.9071 16.0442 13.204 16.3411 13.5702 16.3411Z" stroke="currentColor" stroke-width="1.5" stroke-linecap="round" stroke-linejoin="round"/>
<path d="M0.970947 2.41565H3.62342L5.40058 11.2948C5.46122 11.6001 5.62731 11.8744 5.86977 12.0695C6.11223 12.2647 6.41562 12.3684 6.72682 12.3624H13.1723C13.4835 12.3684 13.7869 12.2647 14.0294 12.0695C14.2719 11.8744 14.4379 11.6001 14.4986 11.2948L15.5596 5.73125H4.28654" stroke="currentColor" stroke-width="1.5" stroke-linecap="round" stroke-linejoin="round"/>
<path d="M15.2532 2.44267H6.76782M6.76782 2.44267L9.83874 0.664673M6.76782 2.44267L9.83874 4.1667" stroke="currentColor" stroke-linecap="round" stroke-linejoin="round"/>
</svg>
